<?xml version="1.0" encoding="UTF-8" standalone="no"?>
<!DOCTYPE svg PUBLIC "-//W3C//DTD SVG 1.1//EN"
 "http://www.w3.org/Graphics/SVG/1.1/DTD/svg11.dtd">
<!-- Generated by graphviz version 2.43.0 (0)
 -->
<!-- Title: %3 Pages: 1 -->
<svg width="797pt" height="713pt"
 viewBox="0.00 0.00 797.36 713.00" xmlns="http://www.w3.org/2000/svg" xmlns:xlink="http://www.w3.org/1999/xlink">
<g id="graph0" class="graph" transform="scale(1 1) rotate(0) translate(4 709)">
<title>%3</title>
<polygon fill="white" stroke="transparent" points="-4,4 -4,-709 793.36,-709 793.36,4 -4,4"/>
<!-- USER -->
<g id="node1" class="node">
<title>USER</title>
<polygon fill="white" stroke="black" points="199.15,-275 145.15,-275 145.15,-239 199.15,-239 199.15,-275"/>
<text text-anchor="middle" x="172.15" y="-254.5" font-family="Courier,monospace" font-size="10.00">USER</text>
</g>
<!-- MAKES -->
<g id="node28" class="node">
<title>MAKES</title>
<polygon fill="white" stroke="black" points="415.02,-507 375.76,-489 415.02,-471 454.27,-489 415.02,-507"/>
<text text-anchor="middle" x="415.02" y="-486.5" font-family="Courier,monospace" font-size="10.00">MAKES</text>
</g>
<!-- USER&#45;&#45;MAKES -->
<g id="edge23" class="edge">
<title>USER&#45;&#45;MAKES</title>
<path fill="none" stroke="black" d="M174.13,-275.01C177.53,-318.15 192.67,-427.45 259.65,-477 297.15,-504.73 354.72,-500.39 387.94,-494.71"/>
<text text-anchor="middle" x="238.15" y="-461" font-family="Courier,monospace" font-size="10.00">N</text>
</g>
<!-- CREATES -->
<g id="node29" class="node">
<title>CREATES</title>
<polygon fill="white" stroke="black" points="308.77,-36 259.54,-18 308.77,0 358.01,-18 308.77,-36"/>
<text text-anchor="middle" x="308.77" y="-15.5" font-family="Courier,monospace" font-size="10.00">CREATES</text>
</g>
<!-- USER&#45;&#45;CREATES -->
<g id="edge25" class="edge">
<title>USER&#45;&#45;CREATES</title>
<path fill="none" stroke="black" d="M176.32,-238.97C184.07,-199.51 207.29,-104.29 259.65,-45 266.25,-37.53 275.43,-31.68 284,-27.36"/>
<text text-anchor="middle" x="238.15" y="-78" font-family="Courier,monospace" font-size="10.00">N</text>
</g>
<!-- USER_user_id -->
<g id="node2" class="node">
<title>USER_user_id</title>
<ellipse fill="white" stroke="black" cx="45.33" cy="-392" rx="34.96" ry="18"/>
<text text-anchor="start" x="23.83" y="-390.5" font-family="Courier,monospace" text-decoration="underline" font-size="10.00">user_id</text>
</g>
<!-- USER_user_id&#45;&#45;USER -->
<g id="edge1" class="edge">
<title>USER_user_id&#45;&#45;USER</title>
<path fill="none" stroke="black" d="M70.51,-379.55C77.4,-375.42 84.66,-370.46 90.65,-365 120.57,-337.76 146.81,-298.02 160.69,-275.11"/>
</g>
<!-- USER_name -->
<g id="node3" class="node">
<title>USER_name</title>
<ellipse fill="white" stroke="black" cx="45.33" cy="-338" rx="27" ry="18"/>
<text text-anchor="middle" x="45.33" y="-335.5" font-family="Courier,monospace" font-size="10.00">name</text>
</g>
<!-- USER_name&#45;&#45;USER -->
<g id="edge2" class="edge">
<title>USER_name&#45;&#45;USER</title>
<path fill="none" stroke="black" d="M66.3,-326.09C73.96,-321.45 82.76,-316.05 90.65,-311 108.94,-299.3 129.24,-285.68 144.88,-275.05"/>
</g>
<!-- USER_username -->
<g id="node4" class="node">
<title>USER_username</title>
<ellipse fill="white" stroke="black" cx="45.33" cy="-284" rx="38.03" ry="18"/>
<text text-anchor="middle" x="45.33" y="-281.5" font-family="Courier,monospace" font-size="10.00">username</text>
</g>
<!-- USER_username&#45;&#45;USER -->
<g id="edge3" class="edge">
<title>USER_username&#45;&#45;USER</title>
<path fill="none" stroke="black" d="M80.44,-276.62C100.79,-272.22 126.25,-266.71 145.01,-262.66"/>
</g>
<!-- USER_password -->
<g id="node5" class="node">
<title>USER_password</title>
<ellipse fill="white" stroke="black" cx="45.33" cy="-230" rx="38.03" ry="18"/>
<text text-anchor="middle" x="45.33" y="-227.5" font-family="Courier,monospace" font-size="10.00">password</text>
</g>
<!-- USER_password&#45;&#45;USER -->
<g id="edge4" class="edge">
<title>USER_password&#45;&#45;USER</title>
<path fill="none" stroke="black" d="M80.44,-237.38C100.79,-241.78 126.25,-247.29 145.01,-251.34"/>
</g>
<!-- USER_role -->
<g id="node6" class="node">
<title>USER_role</title>
<ellipse fill="white" stroke="black" cx="45.33" cy="-176" rx="27" ry="18"/>
<text text-anchor="middle" x="45.33" y="-173.5" font-family="Courier,monospace" font-size="10.00">role</text>
</g>
<!-- USER_role&#45;&#45;USER -->
<g id="edge5" class="edge">
<title>USER_role&#45;&#45;USER</title>
<path fill="none" stroke="black" d="M66.3,-187.91C73.96,-192.55 82.76,-197.95 90.65,-203 108.94,-214.7 129.24,-228.32 144.88,-238.95"/>
</g>
<!-- USER_joined -->
<g id="node7" class="node">
<title>USER_joined</title>
<ellipse fill="white" stroke="black" cx="45.33" cy="-122" rx="31.4" ry="18"/>
<text text-anchor="middle" x="45.33" y="-119.5" font-family="Courier,monospace" font-size="10.00">joined</text>
</g>
<!-- USER_joined&#45;&#45;USER -->
<g id="edge6" class="edge">
<title>USER_joined&#45;&#45;USER</title>
<path fill="none" stroke="black" d="M69.59,-133.9C76.75,-138.14 84.39,-143.3 90.65,-149 120.57,-176.24 146.81,-215.98 160.69,-238.89"/>
</g>
<!-- POST -->
<g id="node8" class="node">
<title>POST</title>
<polygon fill="white" stroke="black" points="526.14,-257 472.14,-257 472.14,-221 526.14,-221 526.14,-257"/>
<text text-anchor="middle" x="499.14" y="-236.5" font-family="Courier,monospace" font-size="10.00">POST</text>
</g>
<!-- HAS -->
<g id="node30" class="node">
<title>HAS</title>
<polygon fill="white" stroke="black" points="628.25,-431 598.97,-413 628.25,-395 657.53,-413 628.25,-431"/>
<text text-anchor="middle" x="628.25" y="-410.5" font-family="Courier,monospace" font-size="10.00">HAS</text>
</g>
<!-- POST&#45;&#45;HAS -->
<g id="edge27" class="edge">
<title>POST&#45;&#45;HAS</title>
<path fill="none" stroke="black" d="M506.13,-257.34C515.88,-285.06 537.34,-338.18 569.14,-374 581.08,-387.45 598.64,-398.38 611.33,-405.21"/>
<text text-anchor="middle" x="547.64" y="-350" font-family="Courier,monospace" font-size="10.00">N</text>
</g>
<!-- TAGGED_BY -->
<g id="node31" class="node">
<title>TAGGED_BY</title>
<polygon fill="white" stroke="black" points="628.25,-257 569.04,-239 628.25,-221 687.46,-239 628.25,-257"/>
<text text-anchor="middle" x="628.25" y="-236.5" font-family="Courier,monospace" font-size="10.00">TAGGED_BY</text>
</g>
<!-- POST&#45;&#45;TAGGED_BY -->
<g id="edge29" class="edge">
<title>POST&#45;&#45;TAGGED_BY</title>
<path fill="none" stroke="black" d="M526.17,-239C538.59,-239 553.99,-239 568.99,-239"/>
<text text-anchor="middle" x="547.64" y="-242" font-family="Courier,monospace" font-size="10.00">N</text>
</g>
<!-- POST_post_id -->
<g id="node9" class="node">
<title>POST_post_id</title>
<ellipse fill="white" stroke="black" cx="308.77" cy="-450" rx="34.96" ry="18"/>
<text text-anchor="start" x="287.27" y="-448.5" font-family="Courier,monospace" text-decoration="underline" font-size="10.00">post_id</text>
</g>
<!-- POST_post_id&#45;&#45;POST -->
<g id="edge7" class="edge">
<title>POST_post_id&#45;&#45;POST</title>
<path fill="none" stroke="black" d="M335.68,-438.39C367.84,-422.73 422.33,-391.88 454.14,-350 475.96,-321.28 488.45,-280.32 494.21,-257.03"/>
</g>
<!-- POST_title -->
<g id="node10" class="node">
<title>POST_title</title>
<ellipse fill="white" stroke="black" cx="308.77" cy="-396" rx="27.84" ry="18"/>
<text text-anchor="middle" x="308.77" y="-393.5" font-family="Courier,monospace" font-size="10.00">title</text>
</g>
<!-- POST_title&#45;&#45;POST -->
<g id="edge8" class="edge">
<title>POST_title&#45;&#45;POST</title>
<path fill="none" stroke="black" d="M332.57,-386.47C363.1,-372.84 417.66,-345.35 454.14,-309 469.4,-293.8 481.88,-272.38 489.6,-257.25"/>
</g>
<!-- POST_user_id -->
<g id="node11" class="node">
<title>POST_user_id</title>
<ellipse fill="white" stroke="black" cx="308.77" cy="-342" rx="34.96" ry="18"/>
<text text-anchor="middle" x="308.77" y="-339.5" font-family="Courier,monospace" font-size="10.00">user_id</text>
</g>
<!-- POST_user_id&#45;&#45;POST -->
<g id="edge9" class="edge">
<title>POST_user_id&#45;&#45;POST</title>
<path fill="none" stroke="black" d="M337.43,-331.59C367.3,-319.8 415.75,-299.08 454.14,-275 462.34,-269.86 470.71,-263.38 477.91,-257.34"/>
</g>
<!-- POST_content -->
<g id="node12" class="node">
<title>POST_content</title>
<ellipse fill="white" stroke="black" cx="308.77" cy="-288" rx="34.96" ry="18"/>
<text text-anchor="middle" x="308.77" y="-285.5" font-family="Courier,monospace" font-size="10.00">content</text>
</g>
<!-- POST_content&#45;&#45;POST -->
<g id="edge10" class="edge">
<title>POST_content&#45;&#45;POST</title>
<path fill="none" stroke="black" d="M340.23,-280.34C369.47,-272.95 414.87,-261.39 454.14,-251 459.96,-249.46 466.2,-247.78 472.1,-246.17"/>
</g>
<!-- POST_date -->
<g id="node13" class="node">
<title>POST_date</title>
<ellipse fill="white" stroke="black" cx="308.77" cy="-234" rx="27" ry="18"/>
<text text-anchor="middle" x="308.77" y="-231.5" font-family="Courier,monospace" font-size="10.00">date</text>
</g>
<!-- POST_date&#45;&#45;POST -->
<g id="edge11" class="edge">
<title>POST_date&#45;&#45;POST</title>
<path fill="none" stroke="black" d="M335.96,-234.7C371.85,-235.65 435.94,-237.35 471.87,-238.3"/>
</g>
<!-- POST_tag -->
<g id="node14" class="node">
<title>POST_tag</title>
<ellipse fill="white" stroke="black" cx="308.77" cy="-180" rx="27" ry="18"/>
<text text-anchor="middle" x="308.77" y="-177.5" font-family="Courier,monospace" font-size="10.00">tag</text>
</g>
<!-- POST_tag&#45;&#45;POST -->
<g id="edge12" class="edge">
<title>POST_tag&#45;&#45;POST</title>
<path fill="none" stroke="black" d="M333.63,-187.47C369.07,-198.57 435.38,-219.34 472.07,-230.83"/>
</g>
<!-- POST_comment_id -->
<g id="node15" class="node">
<title>POST_comment_id</title>
<ellipse fill="white" stroke="black" cx="308.77" cy="-126" rx="45.15" ry="18"/>
<text text-anchor="middle" x="308.77" y="-123.5" font-family="Courier,monospace" font-size="10.00">comment_id</text>
</g>
<!-- POST_comment_id&#45;&#45;POST -->
<g id="edge13" class="edge">
<title>POST_comment_id&#45;&#45;POST</title>
<path fill="none" stroke="black" d="M341.71,-138.38C372.03,-150.88 418.19,-171.89 454.14,-197 464.01,-203.89 473.82,-212.98 481.66,-220.93"/>
</g>
<!-- POST_view_count -->
<g id="node16" class="node">
<title>POST_view_count</title>
<ellipse fill="white" stroke="black" cx="308.77" cy="-72" rx="45.15" ry="18"/>
<text text-anchor="middle" x="308.77" y="-69.5" font-family="Courier,monospace" font-size="10.00">view_count</text>
</g>
<!-- POST_view_count&#45;&#45;POST -->
<g id="edge14" class="edge">
<title>POST_view_count&#45;&#45;POST</title>
<path fill="none" stroke="black" d="M343.58,-83.69C375.47,-96.16 422.92,-118.6 454.14,-151 473.58,-171.17 486.17,-201.61 492.71,-220.89"/>
</g>
<!-- TAG -->
<g id="node17" class="node">
<title>TAG</title>
<polygon fill="white" stroke="black" points="786.86,-311 732.86,-311 732.86,-275 786.86,-275 786.86,-311"/>
<text text-anchor="middle" x="759.86" y="-290.5" font-family="Courier,monospace" font-size="10.00">TAG</text>
</g>
<!-- TAG_tag_id -->
<g id="node18" class="node">
<title>TAG_tag_id</title>
<ellipse fill="white" stroke="black" cx="628.25" cy="-347" rx="31.4" ry="18"/>
<text text-anchor="start" x="609.75" y="-345.5" font-family="Courier,monospace" text-decoration="underline" font-size="10.00">tag_id</text>
</g>
<!-- TAG_tag_id&#45;&#45;TAG -->
<g id="edge15" class="edge">
<title>TAG_tag_id&#45;&#45;TAG</title>
<path fill="none" stroke="black" d="M653.93,-336.72C676.41,-327.35 709.5,-313.57 732.48,-303.99"/>
</g>
<!-- TAG_label -->
<g id="node19" class="node">
<title>TAG_label</title>
<ellipse fill="white" stroke="black" cx="628.25" cy="-293" rx="27.84" ry="18"/>
<text text-anchor="middle" x="628.25" y="-290.5" font-family="Courier,monospace" font-size="10.00">label</text>
</g>
<!-- TAG_label&#45;&#45;TAG -->
<g id="edge16" class="edge">
<title>TAG_label&#45;&#45;TAG</title>
<path fill="none" stroke="black" d="M656.1,-293C678.5,-293 710.22,-293 732.48,-293"/>
</g>
<!-- COMMENT_POST -->
<g id="node20" class="node">
<title>COMMENT_POST</title>
<polygon fill="white" stroke="black" points="216.65,-491 127.65,-491 127.65,-455 216.65,-455 216.65,-491"/>
<text text-anchor="middle" x="172.15" y="-470.5" font-family="Courier,monospace" font-size="10.00">COMMENT_POST</text>
</g>
<!-- COMMENT_POST_post_id -->
<g id="node21" class="node">
<title>COMMENT_POST_post_id</title>
<ellipse fill="white" stroke="black" cx="45.33" cy="-500" rx="34.96" ry="18"/>
<text text-anchor="start" x="23.83" y="-498.5" font-family="Courier,monospace" text-decoration="underline" font-size="10.00">post_id</text>
</g>
<!-- COMMENT_POST_post_id&#45;&#45;COMMENT_POST -->
<g id="edge17" class="edge">
<title>COMMENT_POST_post_id&#45;&#45;COMMENT_POST</title>
<path fill="none" stroke="black" d="M77.83,-493.19C92.85,-489.94 111.07,-486 127.41,-482.46"/>
</g>
<!-- COMMENT_POST_comment_id -->
<g id="node22" class="node">
<title>COMMENT_POST_comment_id</title>
<ellipse fill="white" stroke="black" cx="45.33" cy="-446" rx="45.15" ry="18"/>
<text text-anchor="start" x="14.83" y="-444.5" font-family="Courier,monospace" text-decoration="underline" font-size="10.00">comment_id</text>
</g>
<!-- COMMENT_POST_comment_id&#45;&#45;COMMENT_POST -->
<g id="edge18" class="edge">
<title>COMMENT_POST_comment_id&#45;&#45;COMMENT_POST</title>
<path fill="none" stroke="black" d="M85.48,-454.47C98.78,-457.35 113.72,-460.58 127.36,-463.53"/>
</g>
<!-- COMMENT -->
<g id="node23" class="node">
<title>COMMENT</title>
<polygon fill="white" stroke="black" points="789.36,-570 730.36,-570 730.36,-534 789.36,-534 789.36,-570"/>
<text text-anchor="middle" x="759.86" y="-549.5" font-family="Courier,monospace" font-size="10.00">COMMENT</text>
</g>
<!-- COMMENT_comment_id -->
<g id="node24" class="node">
<title>COMMENT_comment_id</title>
<ellipse fill="white" stroke="black" cx="628.25" cy="-687" rx="45.15" ry="18"/>
<text text-anchor="start" x="597.75" y="-685.5" font-family="Courier,monospace" text-decoration="underline" font-size="10.00">comment_id</text>
</g>
<!-- COMMENT_comment_id&#45;&#45;COMMENT -->
<g id="edge19" class="edge">
<title>COMMENT_comment_id&#45;&#45;COMMENT</title>
<path fill="none" stroke="black" d="M662.8,-675.21C671.38,-671.22 680.19,-666.17 687.36,-660 717.02,-634.48 739.39,-593.76 750.68,-570.29"/>
</g>
<!-- COMMENT_user -->
<g id="node25" class="node">
<title>COMMENT_user</title>
<ellipse fill="white" stroke="black" cx="628.25" cy="-633" rx="27" ry="18"/>
<text text-anchor="middle" x="628.25" y="-630.5" font-family="Courier,monospace" font-size="10.00">user</text>
</g>
<!-- COMMENT_user&#45;&#45;COMMENT -->
<g id="edge20" class="edge">
<title>COMMENT_user&#45;&#45;COMMENT</title>
<path fill="none" stroke="black" d="M651.61,-623.93C662.66,-619.13 676.01,-612.82 687.36,-606 705.09,-595.35 723.7,-581.19 737.48,-570.04"/>
</g>
<!-- COMMENT_content -->
<g id="node26" class="node">
<title>COMMENT_content</title>
<ellipse fill="white" stroke="black" cx="628.25" cy="-579" rx="34.96" ry="18"/>
<text text-anchor="middle" x="628.25" y="-576.5" font-family="Courier,monospace" font-size="10.00">content</text>
</g>
<!-- COMMENT_content&#45;&#45;COMMENT -->
<g id="edge21" class="edge">
<title>COMMENT_content&#45;&#45;COMMENT</title>
<path fill="none" stroke="black" d="M660.62,-572.46C681.75,-568.06 709.41,-562.3 729.99,-558.01"/>
</g>
<!-- COMMENT_date -->
<g id="node27" class="node">
<title>COMMENT_date</title>
<ellipse fill="white" stroke="black" cx="628.25" cy="-525" rx="27" ry="18"/>
<text text-anchor="middle" x="628.25" y="-522.5" font-family="Courier,monospace" font-size="10.00">date</text>
</g>
<!-- COMMENT_date&#45;&#45;COMMENT -->
<g id="edge22" class="edge">
<title>COMMENT_date&#45;&#45;COMMENT</title>
<path fill="none" stroke="black" d="M654.24,-530.21C676.01,-534.74 707.58,-541.32 730.33,-546.06"/>
</g>
<!-- MAKES&#45;&#45;COMMENT -->
<g id="edge24" class="edge">
<title>MAKES&#45;&#45;COMMENT</title>
<path fill="none" stroke="black" d="M444.52,-482.44C495.33,-475.55 603.2,-466.3 688.02,-496.11 709.43,-503.81 729.15,-519.61 742.71,-532.34"/>
<path fill="none" stroke="transparent" d="M444.79,-484.42C495.5,-477.54 603.37,-468.29 687.36,-498 708.18,-505.37 727.9,-521.18 741.34,-533.79"/>
<path fill="none" stroke="black" d="M445.06,-486.4C495.67,-479.54 603.55,-470.28 686.69,-499.89 706.93,-506.93 726.65,-522.74 739.97,-535.25"/>
<text text-anchor="middle" x="547.64" y="-480" font-family="Courier,monospace" font-size="10.00">M</text>
</g>
<!-- CREATES&#45;&#45;POST -->
<g id="edge26" class="edge">
<title>CREATES&#45;&#45;POST</title>
<path fill="none" stroke="black" d="M341.68,-22.29C374.7,-30.48 425.45,-47.92 455.66,-82.7 490.56,-123.89 498.14,-189.25 499.75,-220.85"/>
<path fill="none" stroke="transparent" d="M341.2,-24.23C374.05,-32.37 424.8,-49.81 454.14,-84 488.58,-124.12 496.15,-189.48 497.75,-220.95"/>
<path fill="none" stroke="black" d="M340.72,-26.17C373.4,-34.26 424.15,-51.7 452.63,-85.3 486.59,-124.35 494.16,-189.71 495.76,-221.05"/>
<text text-anchor="middle" x="415.02" y="-87" font-family="Courier,monospace" font-size="10.00">M</text>
</g>
<!-- HAS&#45;&#45;COMMENT -->
<g id="edge28" class="edge">
<title>HAS&#45;&#45;COMMENT</title>
<path fill="none" stroke="black" d="M649.6,-416.68C668.16,-422.81 695.4,-434.16 713.78,-452.6 736.7,-476.12 749.83,-511.85 756.16,-533.41"/>
<path fill="none" stroke="transparent" d="M648.97,-418.58C667.39,-424.66 694.63,-436 712.36,-454 734.82,-476.81 747.96,-512.54 754.25,-533.97"/>
<path fill="none" stroke="black" d="M648.34,-420.48C666.62,-426.51 693.86,-437.85 710.93,-455.4 732.94,-477.5 746.08,-513.23 752.33,-534.54"/>
<text text-anchor="middle" x="708.86" y="-457" font-family="Courier,monospace" font-size="10.00">M</text>
</g>
<!-- TAGGED_BY&#45;&#45;TAG -->
<g id="edge30" class="edge">
<title>TAGGED_BY&#45;&#45;TAG</title>
<path fill="none" stroke="black" d="M654.7,-247.44C677.18,-256.8 710.27,-270.59 733.25,-280.17"/>
<path fill="none" stroke="transparent" d="M653.93,-249.28C676.41,-258.65 709.5,-272.43 732.48,-282.01"/>
<path fill="none" stroke="black" d="M653.16,-251.13C675.64,-260.49 708.73,-274.28 731.72,-283.86"/>
<text text-anchor="middle" x="708.86" y="-276" font-family="Courier,monospace" font-size="10.00">M</text>
</g>
</g>
</svg>
